Coordinates
version=1
nRows=7
nColumns=63
inDegrees=yes

Units are S.I. units (second, meters, Newtons, ...)
If the header above contains a line with 'inDegrees', this indicates whether rotational values are in degrees (yes) or radians (no).

endheader
time	pelvis_tilt	pelvis_list	pelvis_rotation	pelvis_tx	pelvis_ty	pelvis_tz	hip_flexion_r	hip_adduction_r	hip_rotation_r	knee_angle_r	knee_angle_r_beta	ankle_angle_r	subtalar_angle_r	mtp_angle_r	hip_flexion_l	hip_adduction_l	hip_rotation_l	knee_angle_l	knee_angle_l_beta	ankle_angle_l	subtalar_angle_l	mtp_angle_l	L5_S1_Flex_Ext	L5_S1_Lat_Bending	L5_S1_axial_rotation	L4_L5_Flex_Ext	L4_L5_Lat_Bending	L4_L5_axial_rotation	L3_L4_Flex_Ext	L3_L4_Lat_Bending	L3_L4_axial_rotation	L2_L3_Flex_Ext	L2_L3_Lat_Bending	L2_L3_axial_rotation	L1_L2_Flex_Ext	L1_L2_Lat_Bending	L1_L2_axial_rotation	L1_T12_Flex_Ext	L1_T12_Lat_Bending	L1_T12_axial_rotation	Abs_r3	Abs_r2	Abs_r1	Abs_t1	Abs_t2	neck_flexion	neck_bending	neck_rotation	arm_flex_r	arm_add_r	arm_rot_r	elbow_flex_r	pro_sup_r	wrist_flex_r	wrist_dev_r	arm_flex_l	arm_add_l	arm_rot_l	elbow_flex_l	pro_sup_l	wrist_flex_l	wrist_dev_l
      4.37288136	      0.61316876	     -3.62817352	     97.04669747	      0.16648213	      0.99069866	      0.40371721	     -3.23907597	      1.60583276	    -10.27877066	      3.24768880	      0.05668286	     21.52835812	     -3.11120201	      0.00000000	      0.20820933	     -0.16139177	     14.13634015	      3.18060306	      0.05551200	     20.68457723	     -5.32370859	      0.00000000	     -0.10335395	      0.57419994	     -0.68272581	     -0.19193863	      0.76368592	     -0.72539617	     -0.16980021	      1.39610974	     -0.72539617	     -0.11812323	      1.39610974	     -0.59738508	     -0.09597448	      1.17090852	     -0.55471472	     -0.05905645	      0.88943571	     -0.51204435	     -0.73824695	      6.49546458	     -3.79711612	      0.00000000	      0.00000000	     22.79202421	      6.95712529	    -15.73132096	      9.13746214	    -16.40899776	    106.31523852	      7.52869707	      5.60250663	     -3.52292241	     -2.84124409	     10.38084618	     -6.63430722	    179.79899835	      2.03362683	     13.17510862	    -12.89183362	     -1.71898916
      4.38983051	      0.61372218	     -3.77049945	     96.91821804	      0.16721865	      0.99012598	      0.40409361	     -3.24829149	      1.66721673	     -9.15613953	      2.93254083	      0.05118249	     21.28009572	     -4.07028756	      0.00000000	      0.38647213	     -0.15953324	     14.17429944	      3.14221512	      0.05484200	     20.74289545	     -5.60065248	      0.00000000	     -0.11094932	      0.56251081	     -0.57166493	     -0.20604398	      0.74813938	     -0.60739398	     -0.18227864	      1.36768878	     -0.60739398	     -0.12680398	      1.36768878	     -0.50020681	     -0.10302754	      1.14707204	     -0.46447775	     -0.06339644	      0.87132924	     -0.42874870	     -0.79249991	      6.36323478	     -3.17942882	      0.00000000	      0.00000000	     22.94109996	      6.47011118	    -16.85211292	      8.04261509	    -17.06072901	    102.70576325	      8.28983778	      4.95990132	     -4.03955117	     -3.84301225	     10.06628048	     -6.89253682	    185.21634327	      1.91183307	     18.44859555	    -12.03699965	      0.22313242
      4.40677966	      0.61549480	     -3.85914342	     96.77367954	      0.16811844	      0.98971505	      0.40467383	     -3.33210680	      1.78090433	     -6.81644514	      2.53219620	      0.04419516	     20.45037815	     -6.96976994	      0.00000000	      0.52051192	     -0.17615783	     13.90058628	      3.12427380	      0.05452886	     20.89829017	     -5.51761910	      0.00000000	     -0.13003832	      0.55371011	     -0.50898261	     -0.24149416	      0.73643444	     -0.54079402	     -0.21363995	      1.34629075	     -0.54079402	     -0.14862079	      1.34629075	     -0.44535978	     -0.12075358	      1.12912565	     -0.41354837	     -0.07430390	      0.85769695	     -0.38173696	     -0.92885071	      6.26367946	     -2.83080859	      0.00000000	      0.00000000	     22.86021529	      6.10323797	    -17.37713556	      6.90563579	    -17.49220825	     96.85583910	      9.01832817	      6.33414168	     -4.39162719	     -4.63934539	      9.60416260	     -7.21459904	    188.36448759	      1.94417539	     21.63289859	    -11.06491285	      0.61241948
      4.42372881	      0.62649155	     -3.90082967	     96.66632265	      0.16880314	      0.98952427	      0.40545851	     -3.27305251	      1.81106528	     -6.78371943	      2.52765043	      0.04411582	     20.33197400	     -6.92947118	      0.00000000	      0.62162226	     -0.18835255	     13.79823285	      3.13731211	      0.05475643	     21.29434860	     -5.60047523	      0.00000000	     -0.16189998	      0.55008344	     -0.52044974	     -0.30066445	      0.73161098	     -0.55297785	     -0.26598547	      1.33747288	     -0.55297785	     -0.18503548	      1.33747288	     -0.45539352	     -0.15034032	      1.12173016	     -0.42286541	     -0.09250965	      0.85207925	     -0.39033730	     -1.15643534	      6.22265392	     -2.89458531	      0.00000000	      0.00000000	     22.76767746	      5.95022380	    -17.35543511	      6.37510618	    -17.56879954	     96.61249103	      8.95733008	      6.18116594	     -4.37969015	     -4.60623383	      8.97905774	     -7.56437496	    188.40117699	      2.26907290	     21.67899703	    -10.85812381	      0.53720011
      4.44067797	      0.60372195	     -4.07472365	     96.29167132	      0.16978299	      0.98937981	      0.40596490	     -3.19296165	      1.78840843	     -5.98740153	      2.29285814	      0.04001792	     19.80171776	     -7.57053334	      0.00000000	      0.83731436	     -0.15849316	     13.18549997	      3.18554833	      0.05559831	     21.77042727	     -5.27751363	      0.00000000	     -0.15031605	      0.54289421	     -0.42523421	     -0.27915195	      0.72204930	     -0.45181135	     -0.24695425	      1.31999299	     -0.45181135	     -0.17179622	      1.31999299	     -0.37207993	     -0.13958349	      1.10706988	     -0.34550280	     -0.08589059	      0.84094313	     -0.31892566	     -1.07369255	      6.14132790	     -2.36502511	      0.00000000	      0.00000000	     21.70588614	      5.19312184	    -17.71220767	      5.31890136	    -17.47222330	     93.53165568	      8.82385074	      4.21025048	     -3.55170716	     -3.90666722	      8.49483486	     -7.96900526	    185.11516089	      2.72233472	     18.23426855	     -8.49070050	     -1.05439584
      4.45762712	      0.58690050	     -4.11177358	     95.89997546	      0.17074273	      0.98945916	      0.40687430	     -3.10660109	      1.79191961	     -4.73640238	      2.31670756	      0.04043417	     19.10141817	     -9.17577712	      0.00000000	      0.94504646	     -0.16495562	     12.13001936	      3.26893978	      0.05705376	     22.61943739	     -4.24716410	      0.00000000	     -0.17851235	      0.53681324	     -0.38115075	     -0.33151529	      0.71396161	     -0.40497267	     -0.29327794	      1.30520772	     -0.40497267	     -0.20402177	      1.30520772	     -0.33350690	     -0.16576657	      1.09466957	     -0.30968498	     -0.10200196	      0.83152371	     -0.28586306	     -1.27509588	      6.07253877	     -2.11984612	      0.00000000	      0.00000000	     21.38124615	      4.92094400	    -17.72524410	      4.77213831	    -17.52414250	     90.94502215	      9.11736248	      4.69474426	     -3.64040064	     -2.81854489	      8.16964314	     -8.75867156	    174.34125927	      4.69916588	      7.64778156	     -6.08865615	     -3.20203166
      4.47457627	      0.56876836	     -4.20894850	     95.47964404	      0.17163663	      0.98941927	      0.40776833	     -3.00344284	      1.80960769	     -2.91858988	      2.22409530	      0.03881779	     18.01685818	    -11.72539959	      0.00000000	      1.20771360	     -0.18891320	      9.77928283	      3.53433947	      0.06168586	     23.88760599	     -1.48782069	      0.00000000	     -0.18603919	      0.53166117	     -0.33334237	     -0.34549337	      0.70710936	     -0.35417626	     -0.30564378	      1.29268097	     -0.35417626	     -0.21262419	      1.29268097	     -0.29167457	     -0.17275599	      1.08416346	     -0.27084067	     -0.10630279	      0.82354315	     -0.25000677	     -1.32885931	      6.01425750	     -1.85395024	      0.00000000	      0.00000000	     20.90163463	      4.80088905	    -17.40007041	      4.11141722	    -17.59037591	     86.73316192	      9.64342496	      6.31955579	     -4.21882977	     -1.52572654	      7.99564090	    -10.22555633	    151.75431716	      8.53555499	      7.55899167	     -5.08022071	     -4.30471639
